<?xml version="1.0" standalone="no"?>
<!DOCTYPE svg PUBLIC "-//W3C//DTD SVG 20010904//EN" "http://www.w3.org/TR/2001/REC-SVG-20010904/DTD/svg10.dtd">
<!-- Created using Krita: https://krita.org -->
<svg xmlns="http://www.w3.org/2000/svg" 
    xmlns:xlink="http://www.w3.org/1999/xlink"
    xmlns:krita="http://krita.org/namespaces/svg/krita"
    xmlns:sodipodi="http://sodipodi.sourceforge.net/DTD/sodipodi-0.dtd"
    width="360pt"
    height="360pt"
    viewBox="0 0 360 360">
<defs/>
<circle id="shape0" r="180" cx="180" cy="180" fill="#000000" fill-rule="evenodd"/><path id="shape1" transform="translate(62.2934312850845, 49.0318550896894)" fill="#a1958c" d="M110.435 16.4881C115.327 24.9627 117.774 29.2 117.774 29.2C117.7 29.19 117.642 29.1825 117.602 29.1776C116.611 29.0554 115.755 28.9899 114.768 28.8299C114.338 28.76 113.983 28.6299 113.561 28.5218C112.269 28.1913 111.184 27.8068 109.871 27.5767C108.446 27.327 107.2 27.2813 105.759 27.1547C105.163 27.1024 104.648 27.1291 104.054 27.0659C102.515 26.9021 101.202 26.7118 99.6687 26.5064C97.7767 26.2531 96.1732 25.8534 94.2668 25.7553C91.9555 25.6364 89.9677 25.9893 87.6555 25.8882C85.6692 25.8014 83.9972 25.3661 82.0144 25.2197C79.6217 25.043 77.5634 24.9466 75.1642 24.9658C71.4417 24.9956 68.2482 25.0889 64.5354 25.3596C62.7691 25.4884 61.2654 25.7491 59.5306 26.1058C58.2351 26.3722 57.1738 26.7987 55.895 27.1364C54.1841 27.5883 52.6688 27.8029 50.9898 28.3616C49.2046 28.9556 47.6945 29.5545 46.0244 30.4208C43.6224 31.6668 41.7107 32.9989 39.3847 34.3815C38.4141 34.9583 37.5441 35.3917 36.6055 36.0193C34.1318 37.6734 32.0168 39.1043 29.6411 40.8964C28.5043 41.754 27.6267 42.6111 26.583 43.5798C25.9067 44.2076 25.3677 44.7882 24.7298 45.455C24.2009 46.0079 23.6889 46.4374 23.2499 47.0641C21.5367 49.5103 20.0531 51.6091 18.5945 54.2151C17.7385 55.7446 17.1167 57.1422 16.6617 58.8349C15.819 61.9701 15.3716 64.73 14.9045 67.9427C14.598 70.0514 14.3771 71.8849 14.4551 74.0143C14.4951 75.1056 14.8895 75.9996 15.2375 77.0346C15.4808 77.758 15.8122 78.3305 16.1385 79.0205C16.4764 79.735 16.7479 80.3578 17.1348 81.047C17.6365 81.9406 18.3887 83.1967 19.3915 84.8152L4.95425 59.8091C5.39295 60.3336 5.7463 60.7213 6.01428 60.9724C6.41264 61.3456 6.78525 61.6336 7.23373 61.9448C7.67247 62.2493 8.07308 62.4747 8.54347 62.7275C9.03256 62.9904 9.45594 63.2128 9.97238 63.4167C10.9459 63.8012 11.8036 64.0688 12.7944 64.4063C13.5698 64.6704 14.2374 64.8884 15.0184 65.1356C15.8311 65.3928 16.5325 65.5973 17.3474 65.8474C18.1502 66.0939 18.8255 66.3512 19.6404 66.5544C21.8079 67.0946 23.674 67.5286 25.8637 67.9702C26.5637 68.1114 27.1758 68.1784 27.8888 68.2179C31.8191 68.4356 35.1905 68.5786 39.1248 68.7049C41.4536 68.7797 43.4518 68.839 45.7814 68.7925C47.1991 68.7642 48.4135 68.6578 49.8217 68.4913C50.584 68.4012 51.2223 68.2247 51.9721 68.0607C52.7673 67.8867 53.4446 67.7183 54.2356 67.5257C56.54 66.9647 58.4829 66.3342 60.8159 65.9077C62.3574 65.6259 63.7151 65.6542 65.2753 65.5075C65.9919 65.4402 66.6189 65.4548 67.321 65.2962C68.8514 64.9506 70.1414 64.5576 71.6332 64.0717C72.3663 63.8328 72.9482 63.5036 73.6684 63.2285C75.51 62.5251 77.0686 61.8597 78.9515 61.2762C79.7879 61.017 80.5476 60.9629 81.4128 60.8285C82.0066 60.7363 82.5205 60.6913 83.1182 60.629C83.6916 60.5692 84.1879 60.5616 84.7586 60.4797C85.6196 60.3562 86.3574 60.238 87.205 60.0425C87.8112 59.9026 88.3093 59.7026 88.905 59.523C90.5674 59.0216 91.9942 58.598 93.6566 58.0965C94.6213 57.8055 95.4418 57.5347 96.4109 57.2586C97.3547 56.9896 98.1722 56.7902 99.121 56.5395C100.211 56.2515 101.136 55.9638 102.237 55.7195C103.892 55.3521 105.316 55.0526 106.992 54.7926C107.694 54.6837 108.308 54.6978 109.018 54.6675C109.277 54.6565 109.499 54.6771 109.758 54.6748C109.771 54.6747 109.789 54.6698 109.811 54.6603L124.483 80.0718C124.339 80.2733 124.22 80.4212 124.126 80.5153C122.16 82.4932 120.439 84.1531 118.466 86.124C117.709 86.8802 117.091 87.5595 116.325 88.3068C113.729 90.8392 111.53 93.0376 108.862 95.4939C108.261 96.0475 107.589 96.3358 106.995 96.8969C102.21 101.417 98.1943 105.381 93.5035 109.999C92.5229 110.965 91.7208 111.831 90.7929 112.847C89.5522 114.206 88.5338 115.411 87.3085 116.783C85.9622 118.291 84.8581 119.631 83.4456 121.078C77.6053 127.057 72.4628 132.048 66.5905 137.996C65.8704 138.725 65.3111 139.405 64.6118 140.155C63.735 141.094 62.9447 141.864 62.0877 142.822C60.5458 144.545 59.1717 145.982 57.7594 147.813C55.5315 150.701 53.7854 153.299 51.6979 156.29C51.2926 156.871 50.9939 157.402 50.6395 158.015C49.5968 159.819 48.6966 161.362 47.7067 163.195C47.3773 163.806 47.1808 164.371 46.8725 164.992C46.0439 166.662 45.2919 168.072 44.4589 169.74C44.0523 170.554 43.7249 171.262 43.3308 172.083C42.9757 172.822 42.654 173.447 42.3183 174.195C41.9969 174.911 41.6894 175.516 41.454 176.264C40.951 177.864 40.6003 179.26 40.2126 180.891C39.9453 182.016 39.7512 182.99 39.5838 184.133C39.4955 184.737 39.4892 185.263 39.4836 185.872C39.4708 187.251 39.372 188.442 39.5312 189.811C39.6352 190.706 40.0434 191.407 40.2296 192.289C40.5191 193.66 40.6516 194.858 40.8884 196.24C40.9873 196.817 41.0918 197.309 41.1887 197.887C41.2894 198.487 41.3795 199.002 41.4528 199.607C41.5911 200.746 41.6514 201.73 41.7931 202.869C41.8611 203.416 41.9738 203.877 42.0518 204.422C42.2028 205.478 42.2693 206.393 42.4475 207.444C42.5331 207.95 42.6782 208.368 42.8045 208.865C43.0004 209.636 43.2816 210.738 43.6481 212.169L29.1537 187.064C28.788 185.636 28.5081 184.537 28.3143 183.768C28.1916 183.28 28.0544 182.869 27.9723 182.373C27.7992 181.326 27.7341 180.417 27.5862 179.367C27.5096 178.824 27.3966 178.365 27.3309 177.82C27.1951 176.693 27.1432 175.72 27.0109 174.592C26.9402 173.99 26.8528 173.478 26.7511 172.88C26.6509 172.292 26.5395 171.792 26.4342 171.204C26.1812 169.793 26.028 168.572 25.7272 167.17C25.5399 166.297 25.1377 165.601 25.0413 164.714C24.8958 163.373 25.0169 162.208 25.0422 160.859C25.0536 160.252 25.0575 159.728 25.146 159.126C25.3144 157.983 25.4948 157.005 25.7748 155.884C26.1731 154.289 26.5627 152.932 27.0823 151.372C27.3287 150.633 27.6279 150.031 27.9598 149.325C28.3028 148.597 28.6424 147.994 29.0095 147.277C29.4175 146.48 29.7859 145.806 30.1744 144.998C31.0011 143.281 31.6819 141.796 32.4809 140.065C32.7747 139.429 32.9661 138.855 33.2967 138.236C34.2793 136.399 35.1688 134.849 36.2296 133.056C36.5827 132.459 36.9316 131.976 37.3342 131.412C39.448 128.447 41.1902 125.853 43.4188 122.974C44.8352 121.144 46.1769 119.676 47.7391 117.969C48.5981 117.031 49.4306 116.319 50.3312 115.42C51.0491 114.703 51.6516 114.076 52.3632 113.354C58.2371 107.389 63.2901 102.294 69.1471 96.312C70.5484 94.8809 71.7227 93.6282 73.1007 92.1746C74.3546 90.852 75.4075 89.6975 76.6669 88.3801C77.6141 87.3893 78.4454 86.5589 79.405 85.58C84.0428 80.849 87.9535 76.7297 92.6592 72.0662C93.2414 71.4893 93.8892 71.1654 94.5007 70.6198C97.1916 68.2193 99.466 66.1253 102.09 63.6525C102.87 62.9177 103.512 62.2579 104.225 61.4579C106.125 59.3248 107.74 57.4824 109.554 55.2753C109.653 55.1552 109.739 54.9502 109.811 54.6603L124.483 80.0718C124.438 80.0156 124.399 79.9825 124.364 79.9726C124.077 79.8906 123.827 79.8079 123.528 79.7992C122.811 79.7786 122.19 79.7808 121.481 79.8895C119.808 80.1461 118.392 80.4736 116.74 80.8404C115.637 81.0852 114.705 81.3532 113.611 81.6364C112.66 81.8824 111.845 82.0912 110.899 82.3523C109.924 82.6213 109.094 82.8713 108.122 83.1508C106.448 83.632 105.011 84.0357 103.34 84.5258C102.744 84.7008 102.248 84.9058 101.644 85.0509C100.801 85.253 100.07 85.391 99.2134 85.5162C98.6399 85.6 98.1395 85.5917 97.5626 85.6473C96.9633 85.7052 96.4483 85.7479 95.8534 85.8404C94.9892 85.9748 94.2355 86.0492 93.3962 86.2952C91.4962 86.8521 89.9092 87.4625 88.0449 88.1292C87.3173 88.3894 86.7268 88.702 85.9926 88.9429C84.5058 89.4309 83.2243 89.8353 81.705 90.2101C81.0174 90.3797 80.4055 90.4169 79.7016 90.4946C78.1485 90.666 76.798 90.6588 75.2577 90.9217C72.9026 91.3237 70.9217 91.8633 68.5915 92.391C67.7993 92.5703 67.1276 92.7547 66.3371 92.9415C65.5964 93.1165 64.9721 93.33 64.217 93.4246C62.8079 93.6012 61.5897 93.685 60.17 93.7143C57.8443 93.7623 55.8491 93.72 53.5242 93.6454C49.5859 93.519 46.2117 93.3612 42.2777 93.1401C41.5665 93.1002 40.9538 93.0461 40.2567 92.8997C38.0475 92.4358 36.1696 91.9638 33.9841 91.3984C33.1684 91.1873 32.4912 90.9296 31.6858 90.6823C30.8734 90.4329 30.175 90.226 29.3618 89.9791C28.5958 89.7465 27.9387 89.5486 27.1739 89.3123C26.2119 89.015 25.3734 88.8009 24.4279 88.4545C23.9135 88.266 23.4955 88.0448 23.0118 87.7874C22.5401 87.5365 22.1404 87.3088 21.7017 87.004C21.2524 86.6919 20.8776 86.4049 20.4805 86.0287C20.2043 85.767 19.8413 85.3625 19.3915 84.8152L4.95425 59.8091C3.937 58.1656 3.17365 56.8903 2.66419 55.9831C2.27252 55.2857 1.99649 54.6559 1.65425 53.933C1.32831 53.2445 0.99632 52.6734 0.755356 51.9508C0.416642 50.9349 0.0272783 50.0555 0.00437285 48.9849C-0.0398279 46.9191 0.258418 45.1512 0.566156 43.1079C1.05355 39.8717 1.43304 37.0775 2.27408 33.9147C2.7221 32.2299 3.36978 30.8503 4.22906 29.3334C5.69825 26.7398 7.21845 24.6732 8.90246 22.2136C9.34536 21.5668 9.77838 21.0483 10.3015 20.4645C10.9175 19.777 11.4595 19.1955 12.1529 18.5861C13.2139 17.6537 14.1729 16.9105 15.3058 16.067C17.6956 14.2876 19.7389 12.7512 22.215 11.0941C23.1535 10.466 24.0695 10.1134 25.047 9.54779C27.389 8.19265 29.3158 6.88999 31.6981 5.60698C33.347 4.71898 34.7859 3.9791 36.5507 3.35237C38.2195 2.75971 39.746 2.57349 41.4629 2.13918C42.7522 1.81302 43.8381 1.45364 45.1395 1.17965C46.8572 0.818019 48.331 0.455932 50.0815 0.324702C53.8085 0.0452905 57.018 0.0438008 60.7554 0.00895186C63.133 -0.0132187 65.1754 -0.00509439 67.5472 0.161841C69.5441 0.302381 71.2217 0.778778 73.2206 0.886264C75.5457 1.01129 77.5469 0.720798 79.8731 0.824635C81.7421 0.908066 83.3289 1.18757 85.1852 1.42035C86.7364 1.61486 88.0553 1.86339 89.608 2.04534C90.2025 2.11501 90.7195 2.0862 91.3158 2.13875C92.7564 2.2657 93.9987 2.32769 95.4264 2.55807C96.7105 2.76529 97.7816 3.09504 99.0492 3.38668C99.4662 3.48262 99.8141 3.6205 100.24 3.66545C101.184 3.76522 102.001 3.76189 102.95 3.79872C102.984 3.80005 103.033 3.79257 103.095 3.77627L103.095 3.77627C103.095 3.77627 105.542 8.01356 110.435 16.4881Z" sodipodi:nodetypes="ccccccccccccccccccccccccccccccccccccccccccccccccccccccccccccccccccccccccccccccccccccccccccccccccccccccccccccccccccccccccccccccccccccccccccccccccccccccccccccccccccccccccccccccccccccccccccccccccccccccccccccc"/><path id="shape2" transform="translate(148.084650303153, 42.9985405419837)" fill="#a1958c" d="M26.8753 24.0335C21.9825 15.5589 19.5361 11.3216 19.5361 11.3216C19.5706 11.3631 19.5966 11.3954 19.6142 11.4185C19.705 11.5373 19.7968 11.6301 19.871 11.7599C20.0545 12.0808 20.3009 12.5479 20.6102 13.1611L35.1559 38.355C35.7909 41.8781 36.2725 44.5893 36.6006 46.4888C36.8078 47.6885 36.9743 48.7189 37.154 49.923C37.2837 50.7928 37.3967 51.5387 37.4844 52.4136C37.9247 56.8047 38.4881 60.5577 38.6626 64.9674C38.861 69.9818 38.4227 74.2882 38.5485 79.3049C38.6153 81.9668 39.1648 84.2213 39.2121 86.8836C39.2431 88.63 39.0953 90.1383 38.7713 91.8547C38.2376 94.6822 37.3767 97.0158 36.7686 99.8283C36.2676 102.145 35.8401 104.142 35.6046 106.5C35.493 107.618 35.7211 108.583 35.7826 109.704C35.8255 110.486 35.841 111.157 35.9029 111.938C35.9665 112.738 36.1039 113.417 36.1411 114.219C36.2675 116.937 36.5294 119.274 36.3702 121.991C36.1916 125.037 35.4845 127.591 35.1795 130.626C34.8889 133.517 34.7864 136.009 34.6697 138.913C34.5149 142.763 34.6074 146.071 34.4038 149.919C34.3528 150.882 34.1176 151.687 33.9437 152.635C33.7658 153.605 33.5922 154.432 33.3988 155.398C33.1078 156.853 32.7606 158.082 32.5597 159.552C32.1132 162.818 31.8329 165.633 31.5509 168.918C31.4126 170.528 31.5483 171.926 31.3595 173.531C31.0677 176.011 30.6613 178.118 30.1802 180.568C29.9354 181.815 29.5797 182.851 29.287 184.087C29.1025 184.867 28.9974 185.547 28.8171 186.328C28.663 186.995 28.4811 187.555 28.3317 188.224C28.0673 189.407 27.8819 190.43 27.6349 191.617C27.5085 192.225 27.4256 192.752 27.265 193.352C26.8156 195.031 26.3893 196.458 25.8929 198.123C25.7299 198.67 25.6005 199.145 25.3813 199.672C24.9378 200.738 24.5007 201.627 24.0024 202.668C23.5516 203.61 23.2456 204.466 22.6701 205.338C22.3023 205.895 21.8382 206.261 21.338 206.702C21.0219 206.982 20.7297 207.21 20.3479 207.389C20.0776 207.516 19.8105 207.558 19.5119 207.559C19.1651 207.56 18.8674 207.492 18.5349 207.394C18.1931 207.293 17.9179 207.151 17.5988 206.993C17.2819 206.835 17.0115 206.693 16.7207 206.491C16.436 206.293 16.1843 206.121 15.9608 205.856C15.7943 205.659 15.6031 205.344 15.3869 204.911L0.861454 179.752C0.46434 178.267 0.204333 177.116 0.0814326 176.299C-0.0339441 175.532 0.0063312 174.86 0.0087233 174.084C0.0121642 172.969 0.0514607 172.013 0.098091 170.899C0.121483 170.339 0.105986 169.854 0.208749 169.304C0.386581 168.352 0.517262 167.515 0.896711 166.624C1.60118 164.97 2.39684 163.639 3.28662 162.077C3.85726 161.075 4.42322 160.262 5.0656 159.304C6.08607 157.783 7.01051 156.514 8.03697 154.997C8.71707 153.992 9.27908 153.116 9.94121 152.099C10.5985 151.089 11.228 150.263 11.8067 149.206C13.4998 146.115 14.851 143.411 16.4263 140.258C16.8144 139.482 17.0095 138.751 17.4145 137.983C19.2799 134.446 21.0482 131.505 22.9093 127.966C24.9346 124.115 26.5507 120.752 28.517 116.87C29.2803 115.363 29.9212 114.064 30.7081 112.57C34.1353 106.061 37.046 100.467 40.5572 94.0021C44.0372 87.5951 47.1763 82.1894 50.6818 75.7964C52.2167 72.9972 53.4854 70.5722 54.958 67.7398C55.5777 66.5479 56.0797 65.5112 56.6593 64.2994C57.1735 63.2244 57.6138 62.3021 58.083 61.2067C59.1189 58.7881 59.9017 56.6706 60.9588 54.2612C61.7641 52.4258 62.5268 50.885 63.4026 49.0822C64.552 46.7161 65.5892 44.7136 66.7448 42.3505C67.1829 41.4547 67.5267 40.6718 67.9559 39.7717C69.1897 37.1845 70.177 34.9317 71.4962 32.387C71.9199 31.5698 72.4159 30.9458 72.9281 30.181C73.4209 29.4454 73.8582 28.8249 74.3674 28.1005C74.7268 27.589 75.0626 27.17 75.4097 26.65C75.7764 26.1007 76.0687 25.6152 76.4054 25.047C76.7366 24.4883 77.0087 24.0024 77.3175 23.431C78.1025 21.9782 78.7573 20.7232 79.5303 19.2639C79.7977 18.7592 80.0179 18.3218 80.2899 17.8195C80.5338 17.3692 80.7517 16.9881 81.004 16.5424C81.2547 16.0996 81.4665 15.7181 81.7269 15.281C81.9997 14.8232 82.2505 14.4411 82.5273 13.9857C82.812 13.5176 83.0547 13.1156 83.3312 12.6426C83.6103 12.1654 83.8326 11.7466 84.1145 11.271C84.4054 10.7802 84.674 10.371 84.9676 9.88169C85.2612 9.39242 85.4987 8.96466 85.7921 8.47529C86.0619 8.0253 86.2885 7.63636 86.5767 7.19794C86.9709 6.5982 87.3058 6.08063 87.7413 5.51013C88.0343 5.12624 88.3355 4.83835 88.6546 4.47575C89.1725 3.88708 89.6304 3.39437 90.1326 2.79223C90.8772 1.89953 91.4755 1.10176 92.2161 0.205703C92.2819 0.125995 92.3411 0.0511829 92.4345 0.00681948C92.4722 -0.0110673 92.5466 0.00734469 92.5459 0.049031C92.5404 0.393748 92.4951 0.884181 92.4101 1.52033L106.924 26.6585C106.696 27.3716 106.529 27.9226 106.424 28.3116C106.229 29.0325 106.093 29.6586 105.916 30.3841C105.73 31.144 105.528 31.7864 105.386 32.5557C105.09 34.1583 104.795 35.5313 104.664 37.1558C104.387 40.5954 104.235 43.5543 104.222 47.005C104.215 48.9584 104.488 50.6231 104.606 52.5729C104.737 54.7493 104.675 56.6287 104.931 58.794C105.239 61.3944 105.458 63.6577 106.213 66.1649C106.676 67.7004 107.618 69.7887 109.04 72.4298L94.749 47.6767C95.349 48.6984 95.839 49.4646 96.219 49.9754C98.9844 53.6922 101.197 57.015 104.274 60.4786C105.758 62.1499 107.322 63.3253 109.181 64.5674C110.392 65.3767 111.565 65.9031 112.969 66.2896C114.115 66.6051 115.167 66.5639 116.356 66.5422C116.788 66.5343 117.394 66.4184 118.175 66.1946L132.601 91.1812C131.795 91.3656 131.172 91.4527 130.732 91.4425C129.513 91.4142 128.436 91.4107 127.269 91.0576C125.841 90.6259 124.652 90.0701 123.42 89.2307C121.548 87.9553 119.974 86.7551 118.467 85.0626C115.429 81.6483 113.236 78.3777 110.502 74.7148C110.124 74.2075 109.636 73.4458 109.04 72.4298L94.749 47.6767C93.3383 45.0549 92.4046 42.9815 91.948 41.4567C91.2019 38.9651 90.9947 36.7156 90.693 34.1323C90.4401 31.9658 90.507 30.0856 90.366 27.909C90.2374 25.922 89.9316 24.2284 89.9228 22.2373C89.9074 18.7469 90.0333 15.7521 90.2972 12.2716C90.4201 10.6503 90.7305 9.28243 91.0263 7.68359C91.1692 6.91121 91.375 6.26704 91.5497 5.50124C91.7208 4.75156 91.8519 4.10553 92.0144 3.35394C92.1068 2.92612 92.2388 2.31492 92.4101 1.52033L106.924 26.6585C107.081 26.1324 107.173 25.7232 107.2 25.4307C107.206 25.3647 107.114 25.3204 107.048 25.318C106.945 25.3142 106.842 25.3411 106.771 25.4151C105.978 26.2383 105.355 26.9962 104.604 27.8569C104.085 28.4505 103.657 28.9728 103.143 29.5702C102.827 29.9369 102.528 30.2279 102.233 30.6113C101.798 31.1775 101.461 31.6899 101.058 32.28C100.766 32.7071 100.522 33.0772 100.25 33.5171C99.9501 34.0022 99.7176 34.4328 99.4248 34.9223C99.1313 35.4129 98.8651 35.8247 98.5749 36.3172C98.294 36.794 98.0712 37.2131 97.7933 37.6916C97.5175 38.1664 97.2729 38.5686 96.993 39.041C96.7185 39.5043 96.4792 39.8991 96.2092 40.365C95.9533 40.8066 95.7473 41.1927 95.4905 41.6338C95.2372 42.0689 95.0034 42.432 94.7518 42.8682C94.4707 43.3556 94.2373 43.7777 93.9688 44.2721C93.1833 45.7181 92.532 46.9694 91.7403 48.412C91.4294 48.9785 91.1467 49.455 90.8188 50.0117C90.481 50.5852 90.2007 51.0829 89.8383 51.6412C89.4962 52.1684 89.1662 52.5955 88.8074 53.1114C88.3018 53.8385 87.865 54.4593 87.3686 55.1927C86.8551 55.9511 86.3638 56.5711 85.9222 57.3735C84.5667 59.8365 83.5151 62.0066 82.2397 64.512C81.7924 65.3908 81.4369 66.158 81.0005 67.0422C79.8355 69.4031 78.8126 71.4148 77.6642 73.7839C76.7897 75.5878 76.0382 77.1338 75.2213 78.9645C74.1581 81.347 73.3603 83.4388 72.2933 85.8196C71.8157 86.8854 71.3462 87.7711 70.8097 88.8085C70.2054 89.9769 69.6709 90.9698 69.0345 92.121C67.5111 94.8768 66.1487 97.2076 64.639 99.971C61.1179 106.416 58.1565 111.972 54.6612 118.431C51.1792 124.866 48.1803 130.374 44.7039 136.811C43.9105 138.281 43.2092 139.53 42.4618 141.023C40.4967 144.949 38.8941 148.355 36.9547 152.293C35.1417 155.975 33.538 159.107 31.7406 162.796C31.3626 163.572 31.1395 164.285 30.7398 165.05C29.1286 168.134 27.7196 170.763 25.9978 173.786C25.4029 174.831 24.7856 175.661 24.1248 176.666C23.4596 177.677 22.8849 178.54 22.2094 179.544C21.1829 181.07 20.2611 182.349 19.2617 183.893C18.6253 184.876 18.077 185.721 17.5375 186.76C16.6842 188.404 15.9464 189.818 15.2874 191.549C14.9326 192.481 14.8181 193.344 14.6563 194.328C14.5639 194.89 14.5852 195.384 14.5633 195.953C14.5204 197.066 14.4711 198.02 14.4711 199.134C14.4711 199.921 14.4399 200.604 14.5632 201.382C14.6956 202.217 14.9702 203.393 15.3869 204.911L0.861454 179.752C1.06754 180.165 1.25029 180.465 1.40972 180.653C1.6361 180.919 1.88741 181.095 2.174 181.295C2.46511 181.498 2.736 181.642 3.05373 181.8C3.37222 181.958 3.64575 182.104 3.98864 182.199C4.31284 182.289 4.60541 182.32 4.94179 182.322C5.24917 182.325 5.52722 182.327 5.81338 182.214C6.20478 182.061 6.51189 181.851 6.83366 181.58C7.34335 181.152 7.79565 180.778 8.17366 180.229C8.75662 179.384 9.09882 178.56 9.55129 177.638C10.0613 176.599 10.4771 175.697 10.9223 174.628C11.1401 174.105 11.279 173.638 11.4435 173.096C11.9463 171.439 12.3758 170.019 12.8286 168.348C12.9908 167.749 13.0712 167.222 13.1998 166.615C13.4498 165.436 13.6278 164.417 13.9104 163.245C14.0649 162.604 14.2817 162.078 14.4479 161.44C14.6457 160.68 14.7644 160.017 14.9501 159.255C15.2513 158.018 15.5962 156.978 15.8391 155.729C16.317 153.272 16.7233 151.16 17.008 148.673C17.1932 147.056 17.0319 145.646 17.1791 144.025C17.4732 140.787 17.7997 138.016 18.2682 134.798C18.4806 133.339 18.8317 132.118 19.1232 130.672C19.3189 129.702 19.486 128.87 19.6602 127.895C19.8309 126.94 20.065 126.129 20.1087 125.159C20.2843 121.256 20.1217 117.902 20.2856 113.999C20.4046 111.166 20.6108 108.741 20.9164 105.922C21.2457 102.884 21.9371 100.324 22.0989 97.2722C22.2454 94.5078 21.9464 92.1327 21.7938 89.3685C21.7489 88.5538 21.6034 87.8648 21.5349 87.0517C21.4689 86.2685 21.4558 85.5942 21.4097 84.8097C21.3432 83.6769 21.0899 82.7016 21.213 81.5736C21.4647 79.2679 21.9656 77.3308 22.473 75.0676C23.1039 72.2542 23.9446 69.91 24.4642 67.074C24.7834 65.3315 24.8992 63.7993 24.8619 62.0282C24.8058 59.3663 24.2509 57.1119 24.1985 54.4499C24.1011 49.5058 24.6241 45.2646 24.4343 40.3233C24.2628 35.8573 23.6392 32.0612 23.168 27.6168C23.074 26.7307 22.9573 25.9752 22.8194 25.0949C22.6268 23.8648 22.4506 22.812 22.2239 21.5877C21.8595 19.6192 21.3216 16.8103 20.6102 13.1611L35.1559 38.355C34.8846 37.8078 34.6675 37.3914 34.5046 37.106C34.4417 36.9958 34.36 36.92 34.2805 36.8212C34.2658 36.8029 34.2438 36.7776 34.2145 36.7453L34.2145 36.7453C34.2145 36.7453 31.7681 32.508 26.8753 24.0335Z" sodipodi:nodetypes="ccccccccccccccccccccccccccccccccccccccccccccccccccccccccccccccccccccccccccccccccccccccccccccccccccccccccccccccccccccccccccccccccccccccccccccccccccccccccccccccccccccccccccccccccccccccccccccccccccccccccccccccccccccccccccccc"/><path id="shape3" transform="translate(177.052795038282, 119.970667958981)" fill="#a1958c" d="M7.3392 29.0693C2.4464 20.5947 3.93307e-07 16.3575 0 16.3575C0.0776875 16.3895 0.134807 16.3969 0.17136 16.3799C1.59935 15.7145 2.81155 15.1181 4.2113 14.3952C5.39168 13.7856 6.38543 13.2285 7.54138 12.5737C10.7286 10.7685 13.3449 9.00782 16.6198 7.36707C21.3843 4.98 25.5526 3.09274 30.4862 1.07818C31.8544 0.519533 33.1171 0.26074 34.5774 0.0343906C35.1267 -0.0507515 35.6279 0.0289351 36.157 0.199216C36.7056 0.375749 37.1686 0.614913 37.593 1.00482C38.6913 2.01403 39.4999 3.0163 40.4628 4.15548C41.2555 5.09343 41.8916 5.93487 42.605 6.93454C43.3106 7.92325 43.8416 8.82118 44.5142 9.83267C44.9632 10.508 45.3546 11.0826 45.8095 11.7541C46.2777 12.4451 46.7519 12.9928 47.1516 13.7255C47.7215 14.7701 48.4663 16.2981 49.3859 18.3096L63.6834 43.0735C64.3571 45.5958 64.7403 47.5536 64.833 48.947C65.1422 53.5918 64.8796 57.5924 64.9598 62.2468C65.0443 67.155 65.4081 71.3603 65.3034 76.2681C65.2235 80.0146 64.7785 83.208 64.4333 86.9395C64.3047 88.33 64.05 89.5071 63.95 90.8999C63.6613 94.9232 63.2796 98.3742 63.3233 102.408C63.3406 104.001 63.7767 105.335 64.1232 106.891C64.2804 107.596 64.5016 108.18 64.7594 108.855C65.0237 109.547 65.3159 110.114 65.6131 110.792C66.4377 112.675 67.0898 114.313 67.9647 116.172C68.319 116.926 68.8736 117.977 69.6286 119.327L55.2949 94.5007C56.6751 96.2273 57.7947 97.4998 58.6536 98.3183C59.6127 99.2322 60.5752 99.8609 61.6827 100.588C62.7796 101.308 63.7658 101.857 64.9395 102.444C66.6894 103.318 68.2503 103.939 70.0274 104.757C70.6645 105.05 71.1933 105.339 71.8369 105.618C73.2682 106.238 74.4611 106.872 75.9538 107.324C76.848 107.595 77.6724 107.769 78.6011 107.667C79.7676 107.539 80.7783 107.248 81.8057 106.681C84.1186 105.405 85.9943 104.102 88.0557 102.45C90.3951 100.575 92.182 98.7103 94.3436 96.6328C96.1966 94.8518 97.7699 93.3069 99.5237 91.4282C101.726 89.0688 103.509 86.9511 105.642 84.5288C106.943 83.0512 108.042 81.77 109.336 80.2857C109.928 79.6057 110.439 79.0254 111.031 78.3451C111.533 77.7685 112.249 76.9437 113.178 75.8708L127.58 100.815C126.609 101.822 125.867 102.6 125.352 103.15C124.741 103.805 124.224 104.373 123.629 105.043C122.323 106.512 121.222 107.788 119.922 109.262C117.786 111.686 116.038 113.838 113.814 116.18C112.055 118.033 110.413 119.49 108.551 121.241C106.367 123.294 104.566 125.136 102.256 127.045C100.214 128.734 98.4015 130.128 96.1366 131.503C95.1446 132.106 94.1735 132.481 93.0253 132.651C92.1116 132.786 91.2863 132.623 90.4034 132.352C88.888 131.886 87.6878 131.213 86.2405 130.566C85.5904 130.275 85.0559 129.977 84.4123 129.673C82.6158 128.822 81.0414 128.164 79.2691 127.263C78.099 126.669 77.1087 126.127 76.0119 125.407C74.903 124.678 73.9404 124.047 72.9797 123.132C72.1231 122.316 71.006 121.048 69.6286 119.327L55.2949 94.5007C54.5399 93.1491 53.9848 92.0966 53.6295 91.3432C52.7384 89.4535 52.0697 87.7906 51.229 85.878C50.9315 85.2012 50.6414 84.6355 50.3775 83.945C50.1182 83.2664 49.8892 82.6811 49.7359 81.971C49.4102 80.4621 49.0018 79.1639 49.0123 77.6202C49.0388 73.7042 49.5012 70.3634 49.8408 66.462C49.9618 65.073 50.2156 63.8981 50.328 62.5084C50.6372 58.6849 50.9828 55.4074 51.0452 51.572C51.1246 46.6829 50.8107 42.494 50.7327 37.6049C50.6586 32.9531 50.9345 28.9541 50.6106 24.313C50.5111 22.8868 50.1028 20.8857 49.3859 18.3096L63.6834 43.0735C62.7844 41.0976 62.0554 39.5968 61.4964 38.5714C61.1 37.8442 60.6282 37.3018 60.1636 36.6161C59.7058 35.9405 59.3128 35.3617 58.861 34.682C58.191 33.6744 57.6618 32.7801 56.9585 31.7955C56.2486 30.8017 55.6184 29.9628 54.8261 29.0334C53.8945 27.9409 53.1062 26.9837 52.038 26.0243C51.6206 25.6494 51.1603 25.4386 50.6275 25.2628C50.0824 25.083 49.5759 24.9639 49.0051 25.0238C47.5125 25.1806 46.2096 25.3529 44.8024 25.8745C39.7903 27.7325 35.5443 29.4852 30.7261 31.8C27.4244 33.3862 24.7899 35.1239 21.644 37.0003C20.5011 37.682 19.5692 38.3441 18.4778 39.1056C17.1817 40.0099 16.116 40.8488 14.8238 41.7587C14.7958 41.7785 14.7473 41.786 14.6784 41.7812L14.6784 41.7812C14.6784 41.7812 12.232 37.5439 7.3392 29.0693Z" sodipodi:nodetypes="ccccccccccccccccccccccccccccccccccccccccccccccccccccccccccccccccccccccccccccccccccccccccc"/>
</svg>
